<svg xmlns="http://www.w3.org/2000/svg" version="1.1" xmlns:xlink="http://www.w3.org/1999/xlink" xmlns:svgjs="http://svgjs.dev/svgjs" width="100%" height="100%" viewBox="0 0 1000 600"><rect width="1000" height="600" x="0" y="0" fill="#240a7a"/><g><circle r="166.66666666666666" cx="356.8887583414713" cy="379.11102792735267" fill="#714fe0" transform="matrix(0.6571261447968475,0,0,0.6571261447968475,0,50.87616880779861)"/><path d="M318.16870916110497 377.10928935330674Q326.1757223179085 378.36586441076133 332.8092697142383 383.6259460466176Q339.4135944348134 388.8860276824739 343.3294329859509 396.6884821089941Q347.21604886133355 404.46171385975947 347.21604886133355 413.3161846134509L347.21604886133355 413.3161846134509Q347.21604886133355 424.4500240760133 341.5176270891559 433.392162856969Q335.84842799273304 442.3343016379247 325.00681528771815 447.5067152465167Q314.1652025827033 452.64990617935393 299.43697400230565 452.64990617935393L299.43697400230565 452.64990617935393L244.73212498940038 452.64990617935393L244.73212498940038 306.0105192419827L297.33294134796313 306.0105192419827Q312.2949513343988 306.0105192419827 322.81511460611136 310.94915144453665Q333.33527787782396 315.8877836470906 338.59535951368025 324.3039142644607Q343.85544114953655 332.72004488183074 343.85544114953655 343.24020815354334L343.85544114953655 343.24020815354334Q343.85544114953655 356.273521540165 336.78355361688534 364.80654286055403Q329.7408887599888 373.33956418094317 318.16870916110497 377.10928935330674L318.16870916110497 377.10928935330674ZM263.9022002845211 321.7907641495516L263.9022002845211 369.33605760254136L296.07636629050864 369.33605760254136Q309.5480198134517 369.33605760254136 316.9121341036505 363.0239596395138Q324.2762483938493 356.71186167648636 324.2762483938493 345.5487995381691L324.2762483938493 345.5487995381691Q324.2762483938493 334.4149600756066 316.9121341036505 328.10286211257915Q309.5480198134517 321.7907641495516 295.66724882994197 321.7907641495516L295.66724882994197 321.7907641495516L263.9022002845211 321.7907641495516ZM297.7712814842845 436.86966127178505Q312.06116992836075 436.86966127178505 320.06818308516426 430.14844584819093Q328.07519624196766 423.398007748842 328.07519624196766 411.4167106893916L328.07519624196766 411.4167106893916Q328.07519624196766 399.2016322239032 319.6590656245976 392.15896736700665Q311.2429350072275 385.11630251011024 297.1283826176799 385.11630251011024L297.1283826176799 385.11630251011024L263.9022002845211 385.11630251011024L263.9022002845211 436.86966127178505L297.7712814842845 436.86966127178505ZM420.21429289671687 454.11103996709176Q405.6906230466026 454.11103996709176 394.2353341507378 448.9678490342545Q382.780045254873 443.8246581014173 376.23416588580744 434.6487379144236Q369.71750919249655 425.50204040318454 369.5129504622133 413.5207433437341L369.5129504622133 413.5207433437341L389.9103781390337 413.5207433437341Q390.96239446620496 423.8363478851634 398.44339945942284 430.8790127420599Q405.9244044526406 437.9216775989563 420.21429289671687 437.9216775989563L420.21429289671687 437.9216775989563Q433.8905051499431 437.9216775989563 441.78062760372757 431.0835714723431Q449.670750057512 424.24546534573005 449.670750057512 413.5207433437341L449.670750057512 413.5207433437341Q449.670750057512 405.10461272636417 445.0535672882604 399.84453109050787Q440.407161843254 394.5844494546516 433.48138768937656 391.83751793370436Q426.5263908597444 389.11980908851194 414.74965253057724 385.96376010699817L414.74965253057724 385.96376010699817Q400.22598268046295 382.1648122588798 391.4884026297906 378.36586441076133Q382.780045254873 374.59613923839765 376.55561531910973 366.50145805433Q370.36040805910125 358.3775541945075 370.36040805910125 344.70134194128116L370.36040805910125 344.70134194128116Q370.36040805910125 332.72004488183074 376.46794729184546 323.45645666757275Q382.5462638488349 314.19286845331476 393.5924352841331 309.1665682234965Q404.6386067194313 304.1110453179235 418.9577178392623 304.1110453179235L418.9577178392623 304.1110453179235Q439.5889269221208 304.1110453179235 452.7391310117615 314.4266498593528Q465.88933510140214 324.71303172502724 467.5550276194234 341.7790743658054L467.5550276194234 341.7790743658054L446.51470107599823 341.7790743658054Q445.462684748827 333.3629437484353 437.6894529980616 326.9339550823888Q429.8869985715414 320.5049664163423 417.0582439152031 320.5049664163423L417.0582439152031 320.5049664163423Q405.0769468557527 320.5049664163423 397.50827383527053 326.7293963521055Q389.9103781390337 332.9246036121141 389.9103781390337 344.08766575043126L389.9103781390337 344.08766575043126Q389.9103781390337 352.06545623147997 394.43989288102114 357.1209791370529Q398.96940762300846 362.1765020426259 405.6029550193383 364.80654286055403Q412.23650241566816 367.4365836784822 424.21779947511857 370.7971913902793L424.21779947511857 370.7971913902793Q438.74146932523286 374.800697968681 447.5667174031695 378.6873138440636Q456.4211881568609 382.57392971944637 462.73328611988836 390.69783357926883Q469.0453840829159 398.7925147633366 469.0453840829159 412.6732857468462L469.0453840829159 412.6732857468462Q469.0453840829159 423.398007748842 463.34696231073826 432.86615469338335Q457.6777632143154 442.3343016379247 446.51470107599823 448.23728214038556Q435.38086161343574 454.11103996709176 420.21429289671687 454.11103996709176L420.21429289671687 454.11103996709176Z " fill="#f1f1f1" transform="matrix(0.6571261447968475,0,0,0.6571261447968475,0,50.87616880779861)"/><path d="M659.2429230937908 361.2568783866882Q664.9512564271241 362.15271172002144 669.6804230937908 365.90271172002144Q674.3887564271241 369.65271172002144 677.1804230937908 375.21521172002144Q679.9512564271241 380.7568783866882 679.9512564271241 387.0693783866882L679.9512564271241 387.0693783866882Q679.9512564271241 395.0068783866882 675.8887564271241 401.3818783866881Q671.8470897604574 407.7568783866882 664.1179230937908 411.4443783866882Q656.3887564271241 415.1110450533548 645.8887564271241 415.1110450533548L645.8887564271241 415.1110450533548L606.8887564271241 415.1110450533548L606.8887564271241 310.56937838668813L644.3887564271241 310.56937838668813Q655.0554230937908 310.56937838668813 662.5554230937908 314.09021172002144Q670.0554230937908 317.6110450533548 673.8054230937908 323.6110450533548Q677.5554230937908 329.6110450533548 677.5554230937908 337.1110450533548L677.5554230937908 337.1110450533548Q677.5554230937908 346.40271172002144 672.5137564271241 352.4860450533548Q667.4929230937908 358.5693783866882 659.2429230937908 361.2568783866882L659.2429230937908 361.2568783866882ZM620.5554230937908 321.8193783866881L620.5554230937908 355.71521172002144L643.4929230937908 355.71521172002144Q653.0970897604574 355.71521172002144 658.3470897604574 351.21521172002144Q663.5970897604574 346.71521172002144 663.5970897604574 338.7568783866882L663.5970897604574 338.7568783866882Q663.5970897604574 330.8193783866881 658.3470897604574 326.3193783866882Q653.0970897604574 321.8193783866881 643.2012564271241 321.8193783866881L643.2012564271241 321.8193783866881L620.5554230937908 321.8193783866881ZM644.7012564271241 403.8610450533548Q654.8887564271241 403.8610450533548 660.5970897604574 399.0693783866882Q666.3054230937908 394.2568783866882 666.3054230937908 385.71521172002144L666.3054230937908 385.71521172002144Q666.3054230937908 377.0068783866882 660.3054230937908 371.9860450533548Q654.3054230937908 366.96521172002144 644.2429230937908 366.96521172002144L644.2429230937908 366.96521172002144L620.5554230937908 366.96521172002144L620.5554230937908 403.8610450533548L644.7012564271241 403.8610450533548ZM734.7012564271241 416.46521172002144Q723.1387564271241 416.46521172002144 713.7637564271241 411.21521172002144Q704.3887564271241 405.96521172002144 699.0762564271241 396.27771172002144Q693.7429230937908 386.6110450533548 693.7429230937908 373.8610450533548L693.7429230937908 373.8610450533548Q693.7429230937908 361.2568783866882 699.2220897604574 351.59021172002144Q704.7012564271241 341.90271172002144 714.1387564271241 336.7360450533548Q723.5970897604574 331.5693783866881 735.3054230937908 331.5693783866881L735.3054230937908 331.5693783866881Q746.9929230937908 331.5693783866881 756.4512564271241 336.7360450533548Q765.8887564271241 341.90271172002144 771.3679230937908 351.5068783866882Q776.8470897604574 361.1110450533548 776.8470897604574 373.8610450533548L776.8470897604574 373.8610450533548Q776.8470897604574 386.6110450533548 771.2220897604574 396.27771172002144Q765.5970897604574 405.96521172002144 755.9929230937908 411.21521172002144Q746.3887564271241 416.46521172002144 734.7012564271241 416.46521172002144L734.7012564271241 416.46521172002144ZM734.7012564271241 404.46521172002144Q742.0554230937908 404.46521172002144 748.4929230937908 401.0068783866882Q754.9512564271241 397.5693783866882 758.9304230937908 390.65271172002144Q762.8887564271241 383.7568783866882 762.8887564271241 373.8610450533548L762.8887564271241 373.8610450533548Q762.8887564271241 363.96521172002144 758.9929230937908 357.0693783866882Q755.0970897604574 350.15271172002144 748.8054230937908 346.77771172002144Q742.4929230937908 343.40271172002144 735.1387564271241 343.40271172002144L735.1387564271241 343.40271172002144Q727.6387564271241 343.40271172002144 721.4304230937908 346.77771172002144Q715.2012564271241 350.15271172002144 711.4512564271241 357.0693783866882Q707.7012564271241 363.96521172002144 707.7012564271241 373.8610450533548L707.7012564271241 373.8610450533548Q707.7012564271241 383.90271172002144 711.3679230937908 390.8193783866882Q715.0554230937908 397.71521172002144 721.2012564271241 401.09021172002144Q727.3470897604574 404.46521172002144 734.7012564271241 404.46521172002144L734.7012564271241 404.46521172002144ZM830.7012564271241 416.46521172002144Q819.1387564271241 416.46521172002144 809.7637564271241 411.21521172002144Q800.3887564271241 405.96521172002144 795.0762564271241 396.27771172002144Q789.7429230937908 386.6110450533548 789.7429230937908 373.8610450533548L789.7429230937908 373.8610450533548Q789.7429230937908 361.2568783866882 795.2220897604574 351.59021172002144Q800.7012564271241 341.90271172002144 810.1387564271241 336.7360450533548Q819.5970897604574 331.5693783866881 831.3054230937908 331.5693783866881L831.3054230937908 331.5693783866881Q842.9929230937908 331.5693783866881 852.4512564271241 336.7360450533548Q861.8887564271241 341.90271172002144 867.3679230937908 351.5068783866882Q872.8470897604574 361.1110450533548 872.8470897604574 373.8610450533548L872.8470897604574 373.8610450533548Q872.8470897604574 386.6110450533548 867.2220897604574 396.27771172002144Q861.5970897604574 405.96521172002144 851.9929230937908 411.21521172002144Q842.3887564271241 416.46521172002144 830.7012564271241 416.46521172002144L830.7012564271241 416.46521172002144ZM830.7012564271241 404.46521172002144Q838.0554230937908 404.46521172002144 844.4929230937908 401.0068783866882Q850.9512564271241 397.5693783866882 854.9304230937908 390.65271172002144Q858.8887564271241 383.7568783866882 858.8887564271241 373.8610450533548L858.8887564271241 373.8610450533548Q858.8887564271241 363.96521172002144 854.9929230937908 357.0693783866882Q851.0970897604574 350.15271172002144 844.8054230937908 346.77771172002144Q838.4929230937908 343.40271172002144 831.1387564271241 343.40271172002144L831.1387564271241 343.40271172002144Q823.6387564271241 343.40271172002144 817.4304230937908 346.77771172002144Q811.2012564271241 350.15271172002144 807.4512564271241 357.0693783866882Q803.7012564271241 363.96521172002144 803.7012564271241 373.8610450533548L803.7012564271241 373.8610450533548Q803.7012564271241 383.90271172002144 807.3679230937908 390.8193783866882Q811.0554230937908 397.71521172002144 817.2012564271241 401.09021172002144Q823.3470897604574 404.46521172002144 830.7012564271241 404.46521172002144L830.7012564271241 404.46521172002144ZM955.3470897604574 415.1110450533548L936.7429230937908 415.1110450533548L904.4929230937906 378.8193783866882L904.4929230937906 415.1110450533548L890.8470897604574 415.1110450533548L890.8470897604574 304.11104505335476L904.4929230937906 304.11104505335476L904.4929230937906 369.3610450533548L936.1387564271241 332.90271172002144L955.201256427124 332.90271172002144L916.4929230937908 373.8610450533548L955.3470897604574 415.1110450533548ZM1001.2429230937908 416.15271172002144Q990.8887564271241 416.15271172002144 982.7220897604574 412.4860450533548Q974.5554230937908 408.8193783866881 969.8887564271241 402.27771172002144Q965.2429230937908 395.7568783866882 965.0970897604574 387.21521172002144L965.0970897604574 387.21521172002144L979.6387564271241 387.21521172002144Q980.388756427124 394.5693783866882 985.7220897604574 399.59021172002144Q991.0554230937906 404.6110450533548 1001.2429230937908 404.6110450533548L1001.2429230937908 404.6110450533548Q1010.9929230937906 404.6110450533548 1016.6179230937908 399.7360450533548Q1022.2429230937906 394.8610450533548 1022.2429230937906 387.21521172002144L1022.2429230937906 387.21521172002144Q1022.2429230937906 381.21521172002144 1018.9512564271241 377.46521172002144Q1015.6387564271241 373.71521172002144 1010.7012564271241 371.7568783866882Q1005.7429230937908 369.8193783866882 997.3470897604574 367.5693783866882L997.3470897604574 367.5693783866882Q986.9929230937908 364.8610450533548 980.7637564271241 362.15271172002144Q974.5554230937908 359.46521172002144 970.1179230937906 353.6943783866882Q965.7012564271241 347.90271172002144 965.7012564271241 338.15271172002144L965.7012564271241 338.15271172002144Q965.7012564271241 329.6110450533548 970.0554230937908 323.0068783866881Q974.3887564271241 316.40271172002144 982.2637564271241 312.8193783866881Q990.1387564271241 309.21521172002144 1000.3470897604574 309.21521172002144L1000.3470897604574 309.21521172002144Q1015.0554230937908 309.21521172002144 1024.430423093791 316.5693783866882Q1033.805423093791 323.90271172002144 1034.992923093791 336.0693783866882L1034.992923093791 336.0693783866882L1019.9929230937908 336.0693783866882Q1019.2429230937906 330.0693783866881 1013.7012564271241 325.4860450533548Q1008.138756427124 320.90271172002144 998.9929230937908 320.90271172002144L998.9929230937908 320.90271172002144Q990.4512564271241 320.90271172002144 985.0554230937908 325.34021172002144Q979.6387564271241 329.7568783866882 979.6387564271241 337.71521172002144L979.6387564271241 337.71521172002144Q979.6387564271241 343.40271172002144 982.8679230937908 347.0068783866882Q986.0970897604574 350.6110450533548 990.8262564271241 352.4860450533548Q995.5554230937906 354.3610450533548 1004.0970897604574 356.7568783866881L1004.0970897604574 356.7568783866881Q1014.4512564271241 359.6110450533548 1020.7429230937906 362.3818783866882Q1027.0554230937905 365.15271172002144 1031.5554230937905 370.9443783866882Q1036.0554230937905 376.71521172002144 1036.0554230937905 386.6110450533548L1036.0554230937905 386.6110450533548Q1036.0554230937905 394.2568783866882 1031.992923093791 401.0068783866882Q1027.951256427124 407.7568783866882 1019.9929230937908 411.96521172002144Q1012.0554230937908 416.15271172002144 1001.2429230937908 416.15271172002144L1001.2429230937908 416.15271172002144ZM1096.951256427124 331.40271172002144Q1106.2429230937905 331.40271172002144 1113.742923093791 335.3818783866882Q1121.242923093791 339.3610450533548 1125.513756427124 347.3193783866882Q1129.805423093791 355.2568783866882 1129.805423093791 366.65271172002144L1129.805423093791 366.65271172002144L1129.805423093791 415.1110450533548L1116.305423093791 415.1110450533548L1116.305423093791 368.6110450533548Q1116.305423093791 356.3193783866882 1110.138756427124 349.77771172002144Q1103.992923093791 343.2568783866881 1093.3470897604575 343.2568783866881L1093.3470897604575 343.2568783866881Q1082.555423093791 343.2568783866881 1076.180423093791 350.0068783866882Q1069.805423093791 356.7568783866881 1069.805423093791 369.65271172002144L1069.805423093791 369.65271172002144L1069.805423093791 415.1110450533548L1056.138756427124 415.1110450533548L1056.138756427124 304.11104505335476L1069.805423093791 304.11104505335476L1069.805423093791 344.6110450533548Q1073.8470897604575 338.3193783866882 1080.9720897604575 334.8610450533548Q1088.0970897604575 331.40271172002144 1096.951256427124 331.40271172002144L1096.951256427124 331.40271172002144ZM1187.992923093791 416.46521172002144Q1176.451256427124 416.46521172002144 1167.076256427124 411.21521172002144Q1157.701256427124 405.96521172002144 1152.367923093791 396.27771172002144Q1147.0554230937905 386.6110450533548 1147.0554230937905 373.8610450533548L1147.0554230937905 373.8610450533548Q1147.0554230937905 361.2568783866882 1152.513756427124 351.59021172002144Q1157.9929230937905 341.90271172002144 1167.451256427124 336.7360450533548Q1176.888756427124 331.5693783866881 1188.5970897604575 331.5693783866881L1188.5970897604575 331.5693783866881Q1200.3054230937905 331.5693783866881 1209.742923093791 336.7360450533548Q1219.201256427124 341.90271172002144 1224.6804230937905 351.5068783866882Q1230.138756427124 361.1110450533548 1230.138756427124 373.8610450533548L1230.138756427124 373.8610450533548Q1230.138756427124 386.6110450533548 1224.513756427124 396.27771172002144Q1218.888756427124 405.96521172002144 1209.3054230937905 411.21521172002144Q1199.701256427124 416.46521172002144 1187.992923093791 416.46521172002144L1187.992923093791 416.46521172002144ZM1187.992923093791 404.46521172002144Q1195.3470897604575 404.46521172002144 1201.805423093791 401.0068783866882Q1208.2429230937905 397.5693783866882 1212.2220897604575 390.65271172002144Q1216.201256427124 383.7568783866882 1216.201256427124 373.8610450533548L1216.201256427124 373.8610450533548Q1216.201256427124 363.96521172002144 1212.3054230937905 357.0693783866882Q1208.388756427124 350.15271172002144 1202.0970897604575 346.77771172002144Q1195.805423093791 343.40271172002144 1188.451256427124 343.40271172002144L1188.451256427124 343.40271172002144Q1180.951256427124 343.40271172002144 1174.7220897604575 346.77771172002144Q1168.492923093791 350.15271172002144 1164.7429230937905 357.0693783866882Q1160.9929230937905 363.96521172002144 1160.9929230937905 373.8610450533548L1160.9929230937905 373.8610450533548Q1160.9929230937905 383.90271172002144 1164.6804230937905 390.8193783866882Q1168.3470897604575 397.71521172002144 1174.492923093791 401.09021172002144Q1180.638756427124 404.46521172002144 1187.992923093791 404.46521172002144L1187.992923093791 404.46521172002144ZM1261.8054230937905 348.0693783866882Q1265.847089760457 341.0068783866882 1273.8679230937905 336.27771172002144Q1281.888756427124 331.5693783866881 1292.5554230937905 331.5693783866881L1292.5554230937905 331.5693783866881Q1303.4929230937905 331.5693783866881 1312.4304230937905 336.8193783866882Q1321.3470897604575 342.0693783866881 1326.451256427124 351.59021172002144Q1331.5554230937905 361.1110450533548 1331.5554230937905 373.71521172002144L1331.5554230937905 373.71521172002144Q1331.5554230937905 386.15271172002144 1326.451256427124 395.90271172002144Q1321.3470897604575 405.65271172002144 1312.4304230937905 411.0693783866882Q1303.4929230937905 416.46521172002144 1292.5554230937905 416.46521172002144L1292.5554230937905 416.46521172002144Q1282.0554230937905 416.46521172002144 1274.013756427124 411.7360450533548Q1265.9929230937905 407.0068783866882 1261.8054230937905 399.96521172002144L1261.8054230937905 399.96521172002144L1261.8054230937905 454.1110450533548L1248.138756427124 454.1110450533548L1248.138756427124 332.90271172002144L1261.8054230937905 332.90271172002144L1261.8054230937905 348.0693783866882ZM1317.5970897604575 373.71521172002144Q1317.5970897604575 364.40271172002144 1313.8470897604575 357.5068783866882Q1310.0970897604575 350.6110450533548 1303.7220897604575 347.0068783866882Q1297.347089760457 343.40271172002144 1289.701256427124 343.40271172002144L1289.701256427124 343.40271172002144Q1282.201256427124 343.40271172002144 1275.826256427124 347.09021172002144Q1269.451256427124 350.7568783866882 1265.6179230937905 357.7360450533548Q1261.8054230937905 364.71521172002144 1261.8054230937905 373.8610450533548L1261.8054230937905 373.8610450533548Q1261.8054230937905 383.15271172002144 1265.6179230937905 390.1318783866882Q1269.451256427124 397.1110450533548 1275.826256427124 400.77771172002144Q1282.201256427124 404.46521172002144 1289.701256427124 404.46521172002144L1289.701256427124 404.46521172002144Q1297.347089760457 404.46521172002144 1303.7220897604575 400.77771172002144Q1310.0970897604575 397.1110450533548 1313.8470897604575 390.1318783866882Q1317.5970897604575 383.15271172002144 1317.5970897604575 373.71521172002144L1317.5970897604575 373.71521172002144Z " fill="#f1f1f1" transform="matrix(0.6571261447968475,0,0,0.6571261447968475,0,50.87616880779861)"/></g></svg>